<svg width="42" height="42" viewBox="0 0 42 42" fill="none" xmlns="http://www.w3.org/2000/svg">
<path d="M35.2829 1H6.8838C3.63944 1 1 3.63236 1 6.86803V35.1911C1 38.4267 3.63944 41.0591 6.8838 41.0591H35.2829C38.5273 41.0591 41.1667 38.4267 41.1667 35.1911V6.86803C41.1667 3.63236 38.5273 1 35.2829 1ZM38.8132 35.1911C38.8132 37.1324 37.2295 38.7119 35.2829 38.7119H6.8838C4.93724 38.7119 3.35352 37.1324 3.35352 35.1911V6.86803C3.35352 4.92669 4.93724 3.34721 6.8838 3.34721H35.2829C37.2295 3.34721 38.8132 4.92669 38.8132 6.86803V35.1911Z" fill="#3FB1B5" stroke="#3FB1B5" stroke-width="0.5"/>
<path d="M21.1759 20.7522H29.4055C29.4963 21.2592 29.5417 21.7435 29.5417 22.2051C29.5417 23.8472 29.1974 25.3134 28.5087 26.6037C27.8201 27.8939 26.8382 28.9022 25.5631 29.6287C24.288 30.3552 22.8256 30.7184 21.1759 30.7184C19.9879 30.7184 18.8565 30.4895 17.782 30.0317C16.7074 29.5739 15.7804 28.9552 15.001 28.1758C14.2215 27.3963 13.6029 26.4693 13.1451 25.3948C12.6872 24.3202 12.4583 23.1889 12.4583 22.0008C12.4583 20.8127 12.6872 19.6814 13.1451 18.6068C13.6029 17.5323 14.2215 16.6053 15.001 15.8258C15.7804 15.0464 16.7074 14.4278 17.782 13.9699C18.8565 13.5121 19.9879 13.2832 21.1759 13.2832C23.4462 13.2832 25.3948 14.0437 27.0217 15.5648L24.6494 17.8463C23.7186 16.9458 22.5608 16.4956 21.1759 16.4956C20.1998 16.4956 19.2973 16.7415 18.4687 17.2334C17.6401 17.7252 16.9836 18.3931 16.4993 19.2368C16.015 20.0806 15.7728 21.0019 15.7728 22.0008C15.7728 22.9997 16.015 23.921 16.4993 24.7648C16.9836 25.6086 17.6401 26.2764 18.4687 26.7683C19.2973 27.2601 20.1998 27.5061 21.1759 27.5061C21.8343 27.5061 22.4397 27.4153 22.9921 27.2336C23.5445 27.052 23.9986 26.825 24.3542 26.5526C24.7099 26.2802 25.0202 25.9699 25.285 25.6218C25.5499 25.2737 25.7447 24.9445 25.8696 24.6343C25.9945 24.324 26.0796 24.0289 26.125 23.7489H21.1759V20.7522Z" fill="#3FB1B5"/>
</svg>
