<svg width="42" height="42" viewBox="0 0 42 42" fill="none" xmlns="http://www.w3.org/2000/svg">
<path d="M35.2829 1H6.8838C3.63944 1 1 3.63236 1 6.86803V35.1911C1 38.4267 3.63944 41.0591 6.8838 41.0591H35.2829C38.5273 41.0591 41.1667 38.4267 41.1667 35.1911V6.86803C41.1667 3.63236 38.5273 1 35.2829 1ZM38.8132 35.1911C38.8132 37.1324 37.2295 38.7119 35.2829 38.7119H6.8838C4.93724 38.7119 3.35352 37.1324 3.35352 35.1911V6.86803C3.35352 4.92669 4.93724 3.34721 6.8838 3.34721H35.2829C37.2295 3.34721 38.8132 4.92669 38.8132 6.86803V35.1911Z" fill="#606060" stroke="#606060" stroke-width="0.5"/>
<path d="M31.5 14.7723C30.7271 15.1003 29.8978 15.3227 29.0264 15.422C29.9161 14.9118 30.5972 14.1026 30.92 13.1414C30.0854 13.6138 29.1642 13.9569 28.1826 14.1428C27.3966 13.3399 26.2785 12.8398 25.0384 12.8398C22.6593 12.8398 20.7303 14.6869 20.7303 16.9637C20.7303 17.2866 20.7683 17.602 20.8418 17.9036C17.262 17.7314 14.0877 16.0892 11.9631 13.5937C11.5918 14.2019 11.3805 14.9105 11.3805 15.667C11.3805 17.0981 12.1416 18.3609 13.2964 19.0997C12.5904 19.0771 11.9264 18.8912 11.3451 18.5821V18.6336C11.3451 20.6314 12.8306 22.2988 14.8002 22.6783C14.4394 22.7713 14.0588 22.8228 13.6651 22.8228C13.387 22.8228 13.1179 22.7964 12.8542 22.7461C13.4027 24.3859 14.9931 25.5783 16.8776 25.611C15.4039 26.7167 13.5457 27.3739 11.5275 27.3739C11.1798 27.3739 10.8372 27.3537 10.5 27.3173C12.4067 28.4896 14.6704 29.1732 17.1033 29.1732C25.028 29.1732 29.3597 22.8881 29.3597 17.4374L29.3453 16.9034C30.1917 16.3254 30.9239 15.5991 31.5 14.7723Z" fill="#606060"/>
</svg>
