<svg width="42" height="42" viewBox="0 0 42 42" fill="none" xmlns="http://www.w3.org/2000/svg">
<path d="M35.2829 1H6.8838C3.63944 1 1 3.63236 1 6.86803V35.1911C1 38.4267 3.63944 41.0591 6.8838 41.0591H35.2829C38.5273 41.0591 41.1667 38.4267 41.1667 35.1911V6.86803C41.1667 3.63236 38.5273 1 35.2829 1ZM38.8132 35.1911C38.8132 37.1324 37.2295 38.7119 35.2829 38.7119H6.8838C4.93724 38.7119 3.35352 37.1324 3.35352 35.1911V6.86803C3.35352 4.92669 4.93724 3.34721 6.8838 3.34721H35.2829C37.2295 3.34721 38.8132 4.92669 38.8132 6.86803V35.1911Z" fill="#FFC727" stroke="#FFC727" stroke-width="0.5"/>
<path d="M26.5629 11.0046L23.7857 11C20.6655 11 18.6491 13.1251 18.6491 16.4142V18.9106H15.8567C15.6154 18.9106 15.42 19.1115 15.42 19.3594V22.9763C15.42 23.2241 15.6156 23.4249 15.8567 23.4249H18.6491V32.5514C18.6491 32.7993 18.8445 33 19.0858 33H22.7291C22.9704 33 23.1658 32.799 23.1658 32.5514V23.4249H26.4308C26.6721 23.4249 26.8675 23.2241 26.8675 22.9763L26.8688 19.3594C26.8688 19.2404 26.8227 19.1264 26.7409 19.0422C26.6592 18.9579 26.5478 18.9106 26.4319 18.9106H23.1658V16.7944C23.1658 15.7773 23.4018 15.2609 24.6916 15.2609L26.5625 15.2603C26.8035 15.2603 26.9989 15.0593 26.9989 14.8117V11.4532C26.9989 11.2058 26.8038 11.005 26.5629 11.0046Z" fill="#FFC727"/>
</svg>
