<svg width="42" height="42" viewBox="0 0 42 42" fill="none" xmlns="http://www.w3.org/2000/svg">
<path d="M35.2829 1H6.8838C3.63944 1 1 3.63236 1 6.86803V35.1911C1 38.4267 3.63944 41.0591 6.8838 41.0591H35.2829C38.5273 41.0591 41.1667 38.4267 41.1667 35.1911V6.86803C41.1667 3.63236 38.5273 1 35.2829 1ZM38.8132 35.1911C38.8132 37.1324 37.2295 38.7119 35.2829 38.7119H6.8838C4.93724 38.7119 3.35352 37.1324 3.35352 35.1911V6.86803C3.35352 4.92669 4.93724 3.34721 6.8838 3.34721H35.2829C37.2295 3.34721 38.8132 4.92669 38.8132 6.86803V35.1911Z" fill="#FFC727" stroke="#FFC727" stroke-width="0.5"/>
<g clip-path="url(#clip0_483_791)">
<path d="M21.3652 24.1437C21.3652 22.1724 20.486 20.7153 18.6697 20.1692C19.9949 19.4961 20.6861 18.4764 20.6861 16.8902C20.6861 13.7627 18.4937 13 15.9642 13H9V28.7027H16.1593C18.8437 28.7027 21.3652 27.3341 21.3652 24.1437ZM12.2466 15.6806H15.2931C16.4643 15.6806 17.5185 16.0305 17.5185 17.4747C17.5185 18.8081 16.6984 19.3446 15.5382 19.3446H12.2466V15.6806ZM12.2456 26.036V21.7116H15.7842C17.2135 21.7116 18.1176 22.3452 18.1176 23.9538C18.1176 25.54 17.0384 26.036 15.7172 26.036H12.2456Z" fill="#FFC727"/>
<path d="M27.7993 29C30.3537 29 32.008 27.7765 32.8041 25.1759H30.2117C29.9326 26.1466 28.7824 26.6597 27.8903 26.6597C26.169 26.6597 25.2648 25.5877 25.2648 23.7658H32.9792C33.2232 20.1198 31.3189 17.0126 27.7983 17.0126C24.5387 17.0126 22.3263 19.6174 22.3263 23.0297C22.3263 26.5711 24.4227 29 27.7993 29ZM27.7073 19.3721C29.1825 19.3721 29.9246 20.2937 30.0487 21.8009H25.2688C25.3658 20.3065 26.299 19.3721 27.7073 19.3721Z" fill="#FFC727"/>
<path d="M24.6701 13.8251H30.6591V15.3718H24.6701V13.8251Z" fill="#FFC727"/>
</g>
<defs>
<clipPath id="clip0_483_791">
<rect width="24" height="24" fill="white" transform="translate(9 9)"/>
</clipPath>
</defs>
</svg>
