<svg width="24" height="24" viewBox="0 0 24 24" fill="none" xmlns="http://www.w3.org/2000/svg">
<path fill-rule="evenodd" clip-rule="evenodd" d="M12.7839 4.17116C12.2705 4.03214 11.7293 4.03214 11.2159 4.17116C10.6813 4.31589 10.1629 4.69507 8.68462 5.84486L6.08462 7.86708C5.13318 8.60709 4.81374 8.86655 4.58794 9.17184C4.37095 9.46522 4.2093 9.79573 4.11094 10.1471C4.00858 10.5128 3.9999 10.9242 3.9999 12.1296V18.7495C3.9999 19.52 4.01075 19.6836 4.04296 19.7897C4.13991 20.1093 4.39001 20.3594 4.70961 20.4564C4.81578 20.4886 4.97936 20.4995 5.7499 20.4995H6.3749C6.50284 20.4995 6.53063 20.4991 6.54897 20.4982C7.06267 20.473 7.47346 20.0622 7.49869 19.5485C7.49959 19.5302 7.4999 19.5024 7.4999 19.3745V16.4994C7.4999 14.0142 9.51462 11.9994 11.9999 11.9994C14.4852 11.9994 16.4999 14.0142 16.4999 16.4994V19.3745C16.4999 19.5024 16.5002 19.5302 16.5011 19.5485C16.5263 20.0622 16.9371 20.473 17.4508 20.4982C17.4692 20.4991 17.497 20.4995 17.6249 20.4995H18.2499C19.0204 20.4995 19.184 20.4886 19.2902 20.4564C19.6098 20.3594 19.8599 20.1093 19.9568 19.7897C19.989 19.6836 19.9999 19.52 19.9999 18.7495V12.1296C19.9999 10.9242 19.9912 10.5128 19.8889 10.1471C19.7905 9.79573 19.6289 9.46522 19.4119 9.17184C19.1861 8.86655 18.8666 8.60709 17.9152 7.86709L15.3152 5.84486C13.8369 4.69507 13.3185 4.31589 12.7839 4.17116ZM10.6932 2.24067C11.5489 2.00897 12.4509 2.00897 13.3066 2.24067C14.2799 2.50419 15.1339 3.16908 16.3729 4.13372C16.4288 4.17726 16.4855 4.22141 16.5431 4.26616L19.1431 6.28838C19.179 6.31633 19.2145 6.34389 19.2495 6.37109C20.0538 6.99625 20.6102 7.42873 21.0198 7.98255C21.3815 8.47152 21.6509 9.02236 21.8148 9.60803C22.0005 10.2714 22.0003 10.9761 21.9999 11.9948C21.9999 12.0392 21.9999 12.0841 21.9999 12.1296V18.7495C21.9999 18.7918 21.9999 18.8337 22 18.8753C22.0007 19.4465 22.0013 19.94 21.8707 20.3703C21.5799 21.3291 20.8296 22.0794 19.8708 22.3703C19.4404 22.5008 18.947 22.5002 18.3757 22.4996C18.3342 22.4995 18.2923 22.4995 18.2499 22.4995L17.604 22.4995C17.5088 22.4995 17.427 22.4995 17.3527 22.4958C15.8116 22.4201 14.5792 21.1878 14.5035 19.6467C14.4999 19.5723 14.4999 19.4906 14.4999 19.3954L14.4999 16.4994C14.4999 15.1187 13.3806 13.9994 11.9999 13.9994C10.6192 13.9994 9.4999 15.1187 9.4999 16.4994L9.4999 19.3954C9.49992 19.4906 9.49994 19.5723 9.49628 19.6467C9.42057 21.1878 8.18821 22.4201 6.6471 22.4958C6.57276 22.4995 6.491 22.4995 6.39585 22.4995L5.7499 22.4995C5.70754 22.4995 5.6656 22.4995 5.62407 22.4996C5.0528 22.5002 4.55939 22.5008 4.12904 22.3703C3.17024 22.0794 2.41993 21.3291 2.12908 20.3703C1.99853 19.94 1.99912 19.4465 1.9998 18.8753C1.99985 18.8337 1.9999 18.7918 1.9999 18.7495V12.1296C1.9999 12.0841 1.99988 12.0391 1.99987 11.9948C1.99953 10.9761 1.99929 10.2714 2.18497 9.60803C2.3489 9.02236 2.61831 8.47152 2.97997 7.98255C3.38958 7.42873 3.94602 6.99625 4.75035 6.37108C4.78534 6.34389 4.8208 6.31633 4.85674 6.28838L7.45674 4.26616C7.51428 4.2214 7.57099 4.17725 7.62691 4.13371C8.86589 3.16908 9.71988 2.50419 10.6932 2.24067Z" fill="#3FB1B5"/>
</svg>
