<svg width="24" height="24" viewBox="0 0 24 24" fill="none" xmlns="http://www.w3.org/2000/svg">
<path fill-rule="evenodd" clip-rule="evenodd" d="M12.0002 3.25C10.0672 3.25 8.50016 4.817 8.50016 6.75C8.50016 8.683 10.0672 10.25 12.0002 10.25C13.9332 10.25 15.5002 8.683 15.5002 6.75C15.5002 4.817 13.9332 3.25 12.0002 3.25ZM6.50016 6.75C6.50016 3.71243 8.96259 1.25 12.0002 1.25C15.0377 1.25 17.5002 3.71243 17.5002 6.75C17.5002 9.78757 15.0377 12.25 12.0002 12.25C8.96259 12.25 6.50016 9.78757 6.50016 6.75Z" fill="#3FB1B5"/>
<path fill-rule="evenodd" clip-rule="evenodd" d="M6.10422 15.25C5.41089 15.25 4.86899 15.5876 4.64902 16.0726C4.34456 16.7439 4.06885 17.5432 4.0038 18.3012C3.97471 18.64 4.116 18.8897 4.31068 19.0107C5.33984 19.65 7.72455 20.75 12.0002 20.75C16.2758 20.75 18.6605 19.65 19.6896 19.0107C19.8843 18.8897 20.0256 18.64 19.9965 18.3012C19.9315 17.5432 19.6558 16.7439 19.3513 16.0726C19.1313 15.5876 18.5894 15.25 17.8961 15.25H6.10422ZM2.82758 15.2466C3.43553 13.9061 4.79306 13.25 6.10422 13.25H17.8961C19.2073 13.25 20.5648 13.9061 21.1727 15.2466C21.5219 16.0165 21.8966 17.0515 21.9892 18.1301C22.0735 19.1124 21.6653 20.1379 20.745 20.7096C19.3915 21.5504 16.6398 22.75 12.0002 22.75C7.36056 22.75 4.60886 21.5504 3.25532 20.7096C2.33506 20.1379 1.92682 19.1124 2.01112 18.1301C2.1037 17.0515 2.4784 16.0165 2.82758 15.2466Z" fill="#3FB1B5"/>
</svg>
