<svg width="40" height="40" viewBox="0 0 40 40" fill="none" xmlns="http://www.w3.org/2000/svg">
<path d="M11.3564 0.50961H11.8564V0.5H27.7612C33.7258 0.5 38.6083 5.48469 38.6083 11.612V28.386C38.6083 34.5136 33.7255 39.498 27.7706 39.498H11.3564C5.39053 39.498 0.5 34.5216 0.5 28.4052V11.6216C0.5 5.49485 5.39133 0.50961 11.3564 0.50961ZM2.50833 11.6303V11.6312V28.4149C2.50833 33.401 6.43588 37.4316 11.3564 37.4316H27.7706C32.6738 37.4316 36.5999 33.3995 36.5999 28.3956V11.6216C36.5999 6.6174 32.6735 2.58565 27.7612 2.58565H11.3564C6.44367 2.58565 2.51825 6.61773 2.50833 11.6303ZM30.5927 7.6997C30.5927 7.10977 31.0467 6.66168 31.5968 6.66168C32.147 6.66168 32.601 7.10977 32.601 7.6997C32.601 8.28963 32.147 8.73772 31.5968 8.73772C31.0467 8.73772 30.5927 8.28963 30.5927 7.6997ZM9.53438 20.0038C9.53438 14.3481 14.0591 9.73772 19.5635 9.73772C25.068 9.73772 29.5927 14.3481 29.5927 20.0038C29.5927 25.6596 25.068 30.2699 19.5635 30.2699C14.0591 30.2699 9.53438 25.6596 9.53438 20.0038ZM27.5843 20.0038C27.5843 15.4702 24.0242 11.8137 19.5635 11.8137C15.1029 11.8137 11.5427 15.4702 11.5427 20.0038C11.5427 24.5374 15.1029 28.1939 19.5635 28.1939C24.0242 28.1939 27.5843 24.5374 27.5843 20.0038Z" fill="#FDA300" stroke="#FDA300"/>
</svg>
